<svg width="712" height="366" viewBox="0 0 712 366" fill="none" xmlns="http://www.w3.org/2000/svg">
<path fill-rule="evenodd" clip-rule="evenodd" d="M-216 -358H-173.183C-169.317 -358 -166.183 -354.866 -166.183 -351V-281.479C-166.183 -277.613 -169.317 -274.479 -173.183 -274.479H-216C-219.866 -274.479 -223 -277.613 -223 -281.479V-351C-223 -354.866 -219.866 -358 -216 -358ZM-224 -351C-224 -355.418 -220.418 -359 -216 -359H-173.183C-168.765 -359 -165.183 -355.418 -165.183 -351V-310.379C-164.192 -313.672 -161.137 -316.07 -157.521 -316.07H-114.704C-111.088 -316.07 -108.033 -313.671 -107.042 -310.378V-351C-107.042 -355.418 -103.46 -359 -99.0422 -359H-56.2253C-51.807 -359 -48.2253 -355.418 -48.2253 -351V-310.379C-47.2346 -313.672 -44.1791 -316.07 -40.5633 -316.07H2.25357C5.86934 -316.07 8.92485 -313.672 9.91553 -310.379V-351C9.91553 -355.418 13.4973 -359 17.9155 -359H60.7324C65.1507 -359 68.7324 -355.418 68.7324 -351V-310.379C69.7231 -313.672 72.7786 -316.07 76.3944 -316.07H119.211C122.827 -316.07 125.882 -313.672 126.873 -310.379V-351C126.873 -355.418 130.455 -359 134.873 -359H177.69C182.108 -359 185.69 -355.418 185.69 -351V-310.379C186.681 -313.672 189.736 -316.07 193.352 -316.07H236.169C239.785 -316.07 242.84 -313.672 243.831 -310.379V-351C243.831 -355.418 247.413 -359 251.831 -359H294.648C299.066 -359 302.648 -355.418 302.648 -351V-310.378C303.638 -313.671 306.694 -316.07 310.31 -316.07H353.127C356.743 -316.07 359.798 -313.672 360.789 -310.378V-351C360.789 -355.418 364.371 -359 368.789 -359H411.606C416.024 -359 419.606 -355.418 419.606 -351V-310.379C420.597 -313.672 423.652 -316.07 427.268 -316.07H470.085C473.7 -316.07 476.756 -313.672 477.746 -310.379V-351C477.746 -355.418 481.328 -359 485.746 -359H528.563C532.982 -359 536.563 -355.418 536.563 -351V-310.378C537.554 -313.671 540.609 -316.07 544.225 -316.07H587.042C590.658 -316.07 593.714 -313.672 594.704 -310.379V-351C594.704 -355.418 598.286 -359 602.704 -359H645.521C649.939 -359 653.521 -355.418 653.521 -351V-310.378C654.512 -313.672 657.567 -316.07 661.183 -316.07H704C708.418 -316.07 712 -312.489 712 -308.07V-238.549C712 -234.694 709.273 -231.476 705.644 -230.718C709.273 -229.96 712 -226.742 712 -222.887V-153.366C712 -149.511 709.273 -146.293 705.644 -145.535C709.273 -144.777 712 -141.559 712 -137.704V-68.1831C712 -64.3282 709.273 -61.1101 705.644 -60.3521C709.273 -59.5941 712 -56.376 712 -52.5211V16.9999C712 20.8549 709.273 24.073 705.644 24.831C709.273 25.589 712 28.807 712 32.662V102.183C712 106.038 709.273 109.256 705.644 110.014C709.273 110.772 712 113.99 712 117.845V187.366C712 191.221 709.273 194.439 705.644 195.197C709.273 195.955 712 199.173 712 203.028V272.549C712 276.404 709.273 279.622 705.644 280.38C709.273 281.138 712 284.356 712 288.211V357.732C712 362.151 708.418 365.732 704 365.732H661.183C656.765 365.732 653.183 362.151 653.183 357.732V317.111C652.193 320.404 649.137 322.803 645.521 322.803H602.704C599.089 322.803 596.033 320.404 595.042 317.111V357.732C595.042 362.151 591.461 365.732 587.042 365.732H544.225C539.807 365.732 536.225 362.151 536.225 357.732V317.111C535.235 320.404 532.179 322.803 528.563 322.803H485.746C482.131 322.803 479.075 320.404 478.085 317.111V357.732C478.085 362.151 474.503 365.732 470.085 365.732H427.268C422.849 365.732 419.268 362.151 419.268 357.732V317.111C418.277 320.404 415.222 322.803 411.606 322.803H368.789C365.173 322.803 362.118 320.404 361.127 317.111V357.732C361.127 362.151 357.545 365.732 353.127 365.732H310.31C305.892 365.732 302.31 362.151 302.31 357.732V317.111C301.319 320.404 298.264 322.803 294.648 322.803H251.831C248.215 322.803 245.159 320.404 244.169 317.111V357.732C244.169 362.151 240.587 365.732 236.169 365.732H193.352C188.934 365.732 185.352 362.151 185.352 357.732V317.111C184.361 320.404 181.306 322.803 177.69 322.803H134.873C131.258 322.803 128.202 320.404 127.211 317.111V357.732C127.211 362.151 123.63 365.732 119.211 365.732H76.3944C71.9762 365.732 68.3944 362.151 68.3944 357.732V317.111C67.4039 320.404 64.3483 322.803 60.7324 322.803H17.9155C14.2998 322.803 11.2443 320.404 10.2536 317.111V357.732C10.2536 362.151 6.67184 365.732 2.25357 365.732H-40.5633C-44.9816 365.732 -48.5633 362.151 -48.5633 357.732V317.111C-49.554 320.404 -52.6095 322.803 -56.2253 322.803H-99.0421C-102.658 322.803 -105.714 320.404 -106.704 317.11V357.732C-106.704 362.151 -110.286 365.732 -114.704 365.732H-157.521C-161.939 365.732 -165.521 362.151 -165.521 357.732V317.111C-166.512 320.404 -169.567 322.803 -173.183 322.803H-216C-220.418 322.803 -224 319.221 -224 314.803V245.282C-224 241.427 -221.273 238.209 -217.644 237.451C-221.273 236.693 -224 233.475 -224 229.62V160.099C-224 156.244 -221.273 153.026 -217.644 152.268C-221.273 151.51 -224 148.292 -224 144.437V74.9155C-224 71.0605 -221.273 67.8425 -217.644 67.0845C-221.273 66.3265 -224 63.1084 -224 59.2535V-10.2676C-224 -14.1225 -221.273 -17.3406 -217.644 -18.0986C-221.273 -18.8567 -224 -22.0747 -224 -25.9296V-95.4507C-224 -99.3056 -221.273 -102.524 -217.644 -103.282C-221.273 -104.04 -224 -107.258 -224 -111.113V-180.634C-224 -184.489 -221.273 -187.707 -217.644 -188.465C-221.273 -189.223 -224 -192.441 -224 -196.296V-265.817C-224 -269.672 -221.273 -272.89 -217.644 -273.648C-221.273 -274.406 -224 -277.624 -224 -281.479V-351ZM477.746 285.903V274.858C476.91 277.638 474.602 279.78 471.728 280.38C474.602 280.98 476.91 283.123 477.746 285.903ZM478.085 242.973C478.921 240.193 481.229 238.051 484.103 237.451C481.229 236.851 478.921 234.708 478.085 231.928V242.973ZM477.746 200.719V189.675C476.91 192.455 474.602 194.597 471.728 195.197C474.602 195.797 476.91 197.94 477.746 200.719ZM478.085 157.79C478.921 155.01 481.229 152.868 484.103 152.268C481.229 151.667 478.921 149.525 478.085 146.745V157.79ZM530.207 152.268C533.081 152.868 535.389 155.011 536.225 157.791V146.745C535.389 149.525 533.081 151.667 530.207 152.268ZM536.563 189.674V200.72C537.4 197.94 539.707 195.797 542.582 195.197C539.707 194.597 537.399 192.454 536.563 189.674ZM588.686 195.197C591.56 195.797 593.868 197.94 594.704 200.72V189.675C593.868 192.454 591.56 194.597 588.686 195.197ZM595.042 157.79C595.879 155.01 598.187 152.868 601.061 152.268C598.187 151.667 595.879 149.525 595.042 146.745V157.79ZM647.165 152.268C650.039 152.868 652.347 155.011 653.183 157.791V146.745C652.347 149.525 650.039 151.667 647.165 152.268ZM653.521 189.674V200.72C654.357 197.94 656.665 195.797 659.54 195.197C656.665 194.597 654.357 192.454 653.521 189.674ZM653.521 -151.058C654.357 -148.278 656.665 -146.135 659.54 -145.535C656.665 -144.935 654.357 -142.792 653.521 -140.012V-151.058ZM653.183 -193.988V-182.942C652.347 -185.722 650.039 -187.865 647.165 -188.465C650.039 -189.065 652.347 -191.208 653.183 -193.988ZM595.042 -193.988C595.879 -191.208 598.186 -189.065 601.061 -188.465C598.186 -187.865 595.879 -185.722 595.042 -182.942V-193.988ZM588.686 -145.535C591.56 -146.135 593.868 -148.278 594.704 -151.058V-140.013C593.868 -142.792 591.56 -144.935 588.686 -145.535ZM536.563 -151.058C537.399 -148.278 539.707 -146.135 542.582 -145.535C539.707 -144.935 537.399 -142.792 536.563 -140.012V-151.058ZM536.225 -193.988V-182.942C535.389 -185.722 533.081 -187.865 530.207 -188.465C533.081 -189.065 535.389 -191.208 536.225 -193.988ZM478.085 -193.987C478.921 -191.207 481.229 -189.065 484.103 -188.465C481.229 -187.865 478.921 -185.722 478.085 -182.943V-193.987ZM471.728 -145.535C474.602 -146.135 476.91 -148.278 477.746 -151.057V-140.013C476.91 -142.793 474.602 -144.935 471.728 -145.535ZM478.085 -97.7593V-108.804C478.921 -106.024 481.229 -103.882 484.103 -103.282C481.229 -102.682 478.921 -100.539 478.085 -97.7593ZM471.728 -60.3521C474.602 -60.9523 476.91 -63.0948 477.746 -65.8745V-54.8297C476.91 -57.6094 474.602 -59.7519 471.728 -60.3521ZM478.085 -12.5764V-23.621C478.921 -20.8413 481.229 -18.6988 484.103 -18.0986C481.229 -17.4985 478.921 -15.356 478.085 -12.5764ZM536.225 -12.5754C535.389 -15.3555 533.081 -17.4984 530.207 -18.0986C533.081 -18.6988 535.389 -20.8416 536.225 -23.6215V-12.5754ZM536.563 30.3541V19.3077C537.399 22.0879 539.707 24.2307 542.582 24.831C539.707 25.4312 537.4 27.574 536.563 30.3541ZM594.704 30.3535C593.868 27.5737 591.56 25.4312 588.686 24.831C591.56 24.2308 593.868 22.0882 594.704 19.3083V30.3535ZM601.061 -18.0986C598.186 -17.4984 595.879 -15.3558 595.042 -12.576V-23.6213C595.879 -20.8414 598.186 -18.6988 601.061 -18.0986ZM653.183 -12.5756C652.347 -15.3557 650.039 -17.4984 647.165 -18.0986C650.039 -18.6988 652.347 -20.8415 653.183 -23.6215V-12.5756ZM653.521 30.354V19.308C654.357 22.088 656.665 24.2307 659.54 24.831C656.665 25.4312 654.357 27.5739 653.521 30.354ZM477.746 115.536V104.492C476.91 107.271 474.602 109.414 471.728 110.014C474.602 110.614 476.91 112.757 477.746 115.536ZM478.085 72.6069C478.921 69.8272 481.229 67.6847 484.103 67.0845C481.229 66.4843 478.921 64.3419 478.085 61.5623V72.6069ZM477.746 19.3087C476.91 22.0884 474.602 24.2308 471.728 24.831C474.602 25.4311 476.91 27.5735 477.746 30.3532V19.3087ZM478.085 -268.125V-279.17C478.921 -276.39 481.229 -274.248 484.103 -273.648C481.229 -273.048 478.921 -270.905 478.085 -268.125ZM471.728 -230.718C474.602 -231.318 476.91 -233.461 477.746 -236.241V-225.196C476.91 -227.976 474.602 -230.118 471.728 -230.718ZM243.831 274.857C242.995 277.637 240.687 279.78 237.813 280.38C240.687 280.98 242.995 283.123 243.831 285.903V274.857ZM244.169 242.974C245.005 240.194 247.313 238.051 250.187 237.451C247.313 236.851 245.005 234.708 244.169 231.928V242.974ZM243.831 200.72V189.674C242.995 192.454 240.687 194.597 237.812 195.197C240.687 195.797 242.995 197.94 243.831 200.72ZM244.169 157.79C245.005 155.01 247.313 152.868 250.187 152.268C247.313 151.667 245.005 149.524 244.169 146.744V157.79ZM296.291 152.268C299.166 152.868 301.474 155.011 302.31 157.791V146.744C301.474 149.525 299.166 151.667 296.291 152.268ZM302.648 200.721C303.484 197.94 305.792 195.797 308.666 195.197C305.792 194.597 303.484 192.454 302.648 189.674V200.721ZM354.771 195.197C357.645 195.797 359.953 197.94 360.789 200.72V189.674C359.953 192.454 357.645 194.597 354.771 195.197ZM361.127 157.791C361.963 155.011 364.271 152.868 367.145 152.268C364.271 151.667 361.963 149.525 361.127 146.745V157.791ZM413.249 152.268C416.123 152.868 418.431 155.01 419.268 157.79V146.745C418.431 149.525 416.124 151.667 413.249 152.268ZM419.606 189.675V200.72C420.442 197.94 422.75 195.797 425.624 195.197C422.75 194.597 420.442 192.454 419.606 189.675ZM419.606 -151.058C420.442 -148.278 422.75 -146.135 425.624 -145.535C422.75 -144.935 420.442 -142.792 419.606 -140.013V-151.058ZM419.268 -193.988V-182.942C418.431 -185.722 416.123 -187.865 413.249 -188.465C416.124 -189.065 418.431 -191.208 419.268 -193.988ZM361.127 -193.987C361.963 -191.208 364.271 -189.065 367.145 -188.465C364.271 -187.865 361.963 -185.722 361.127 -182.942V-193.987ZM354.771 -145.535C357.645 -146.135 359.953 -148.278 360.789 -151.058V-140.012C359.953 -142.792 357.645 -144.935 354.771 -145.535ZM302.648 -151.059C303.484 -148.278 305.792 -146.135 308.666 -145.535C305.792 -144.935 303.484 -142.792 302.648 -140.012V-151.059ZM302.31 -193.988V-182.941C301.474 -185.722 299.166 -187.865 296.292 -188.465C299.166 -189.065 301.474 -191.208 302.31 -193.988ZM244.169 -193.988C245.005 -191.208 247.313 -189.065 250.187 -188.465C247.313 -187.865 245.005 -185.722 244.169 -182.942V-193.988ZM237.812 -145.535C240.687 -146.135 242.995 -148.278 243.831 -151.058V-140.012C242.995 -142.792 240.687 -144.935 237.812 -145.535ZM244.169 -97.7585V-108.805C245.005 -106.025 247.313 -103.882 250.187 -103.282C247.313 -102.681 245.005 -100.539 244.169 -97.7585ZM237.812 -60.3521C240.687 -60.9523 242.995 -63.0952 243.831 -65.8754V-54.8289C242.995 -57.609 240.687 -59.7519 237.812 -60.3521ZM244.169 -12.5757V-23.6218C245.005 -20.8417 247.313 -18.6989 250.187 -18.0986C247.313 -17.4984 245.005 -15.3557 244.169 -12.5757ZM302.31 -12.5752C301.474 -15.3554 299.166 -17.4983 296.292 -18.0986C299.166 -18.6989 301.474 -20.8417 302.31 -23.6218V-12.5752ZM308.666 24.831C305.792 25.4312 303.484 27.5742 302.648 30.3544V19.3075C303.484 22.0878 305.792 24.2307 308.666 24.831ZM360.789 30.3539C359.953 27.5739 357.645 25.4312 354.771 24.831C357.645 24.2307 359.953 22.088 360.789 19.3079V30.3539ZM367.145 -18.0986C364.271 -17.4984 361.963 -15.3556 361.127 -12.5756V-23.6212C361.963 -20.8414 364.271 -18.6988 367.145 -18.0986ZM419.268 -12.5762C418.431 -15.356 416.123 -17.4985 413.249 -18.0986C416.124 -18.6989 418.431 -20.8416 419.268 -23.6215V-12.5762ZM419.606 30.3535V19.3086C420.442 22.0883 422.75 24.2308 425.624 24.831C422.75 25.4311 420.442 27.5737 419.606 30.3535ZM243.831 115.537V104.491C242.995 107.271 240.687 109.414 237.813 110.014C240.687 110.614 242.995 112.757 243.831 115.537ZM244.169 72.6077C245.005 69.8276 247.313 67.6847 250.187 67.0845C247.313 66.4843 245.005 64.3416 244.169 61.5616V72.6077ZM243.831 19.308C242.995 22.088 240.687 24.2307 237.812 24.831C240.687 25.4312 242.995 27.5739 243.831 30.3539V19.308ZM244.169 -268.125V-279.171C245.005 -276.391 247.313 -274.248 250.187 -273.648C247.313 -273.048 245.005 -270.905 244.169 -268.125ZM237.812 -230.718C240.687 -231.319 242.995 -233.461 243.831 -236.242V-225.195C242.995 -227.975 240.687 -230.118 237.812 -230.718ZM9.91545 274.858C9.07907 277.638 6.77129 279.78 3.8972 280.38C6.77129 280.98 9.07907 283.123 9.91545 285.903V274.858ZM10.2536 242.973C11.09 240.193 13.3978 238.051 16.2719 237.451C13.3977 236.85 11.0899 234.708 10.2536 231.928V242.973ZM9.91553 200.72V189.674C9.07919 192.454 6.77135 194.597 3.89716 195.197C6.77135 195.797 9.07919 197.94 9.91553 200.72ZM10.2536 157.79C11.0899 155.01 13.3977 152.868 16.2719 152.268C13.3978 151.667 11.09 149.525 10.2536 146.745V157.79ZM62.376 152.268C65.2502 152.868 67.5582 155.01 68.3944 157.79V146.744C67.5582 149.525 65.2503 151.667 62.376 152.268ZM68.7324 200.72C69.5687 197.94 71.8766 195.797 74.7509 195.197C71.8766 194.597 69.5687 192.454 68.7324 189.674V200.72ZM120.855 195.197C123.729 195.797 126.037 197.94 126.873 200.72V189.675C126.037 192.454 123.729 194.597 120.855 195.197ZM127.211 157.79C128.048 155.01 130.355 152.868 133.23 152.268C130.356 151.667 128.048 149.525 127.211 146.745V157.79ZM179.334 152.268C182.208 152.868 184.516 155.01 185.352 157.79V146.745C184.516 149.525 182.208 151.667 179.334 152.268ZM185.69 189.675V200.72C186.526 197.94 188.834 195.797 191.708 195.197C188.834 194.597 186.527 192.454 185.69 189.675ZM185.69 -151.058C186.527 -148.278 188.834 -146.135 191.708 -145.535C188.834 -144.935 186.526 -142.793 185.69 -140.013V-151.058ZM185.352 -193.987V-182.942C184.516 -185.722 182.208 -187.865 179.334 -188.465C182.208 -189.065 184.516 -191.208 185.352 -193.987ZM127.211 -193.987C128.048 -191.207 130.356 -189.065 133.23 -188.465C130.355 -187.865 128.048 -185.722 127.211 -182.942V-193.987ZM120.855 -145.535C123.729 -146.135 126.037 -148.278 126.873 -151.058V-140.013C126.037 -142.793 123.729 -144.935 120.855 -145.535ZM68.7324 -151.058C69.5687 -148.278 71.8766 -146.135 74.7508 -145.535C71.8766 -144.935 69.5687 -142.792 68.7324 -140.012V-151.058ZM68.3944 -193.988V-182.942C67.5582 -185.722 65.2503 -187.865 62.376 -188.465C65.2503 -189.065 67.5582 -191.208 68.3944 -193.988ZM10.2536 -193.987C11.09 -191.207 13.3978 -189.065 16.2719 -188.465C13.3977 -187.865 11.0899 -185.722 10.2536 -182.942V-193.987ZM3.8972 -145.535C6.77138 -146.135 9.07921 -148.278 9.91553 -151.058V-140.013C9.07921 -142.792 6.77138 -144.935 3.8972 -145.535ZM10.2536 -97.7592V-108.804C11.0899 -106.025 13.3977 -103.882 16.2719 -103.282C13.3978 -102.682 11.09 -100.539 10.2536 -97.7592ZM3.89719 -60.3521C6.77127 -60.9523 9.07906 -63.0948 9.91545 -65.8746V-54.8297C9.07906 -57.6094 6.77127 -59.7519 3.89719 -60.3521ZM10.2536 -12.5759V-23.6211C11.09 -20.8413 13.3977 -18.6988 16.2718 -18.0986C13.3977 -17.4984 11.0899 -15.3558 10.2536 -12.5759ZM68.3944 -12.5757C67.5582 -15.3557 65.2503 -17.4984 62.3761 -18.0986C65.2503 -18.6989 67.5582 -20.8417 68.3944 -23.6218V-12.5757ZM68.7324 30.3539V19.308C69.5687 22.088 71.8766 24.2307 74.7509 24.831C71.8766 25.4312 69.5687 27.5739 68.7324 30.3539ZM126.873 30.3534C126.037 27.5736 123.729 25.4311 120.855 24.831C123.729 24.2308 126.037 22.0883 126.873 19.3084V30.3534ZM133.23 -18.0986C130.355 -17.4984 128.048 -15.3559 127.211 -12.5761V-23.6209C128.048 -20.8412 130.356 -18.6988 133.23 -18.0986ZM185.352 -12.5762C184.516 -15.356 182.208 -17.4985 179.334 -18.0986C182.208 -18.6988 184.516 -20.8414 185.352 -23.6212V-12.5762ZM185.69 30.3535V19.3086C186.527 22.0883 188.834 24.2308 191.708 24.831C188.834 25.4312 186.526 27.5737 185.69 30.3535ZM9.91545 115.536V104.492C9.07907 107.271 6.77129 109.414 3.8972 110.014C6.77129 110.614 9.07907 112.757 9.91545 115.536ZM10.2536 72.6069C11.09 69.8271 13.3978 67.6846 16.2719 67.0845C13.3977 66.4843 11.0899 64.3416 10.2536 61.5618V72.6069ZM9.91553 30.3537V19.3082C9.07919 22.0881 6.77135 24.2308 3.89716 24.831C6.77135 25.4312 9.07919 27.5738 9.91553 30.3537ZM10.2536 -268.125V-279.171C11.0899 -276.391 13.3977 -274.248 16.2719 -273.648C13.3978 -273.048 11.09 -270.905 10.2536 -268.125ZM3.89716 -230.718C6.77127 -231.318 9.07906 -233.461 9.91545 -236.241V-225.196C9.07906 -227.976 6.77127 -230.118 3.89716 -230.718ZM-171.54 152.268C-168.665 152.868 -166.358 155.01 -165.521 157.79V146.745C-166.358 149.525 -168.665 151.667 -171.54 152.268ZM-165.183 200.72C-164.347 197.94 -162.039 195.797 -159.165 195.197C-162.039 194.597 -164.347 192.454 -165.183 189.675V200.72ZM-113.061 195.197C-110.186 195.797 -107.878 197.94 -107.042 200.72V189.674C-107.878 192.454 -110.186 194.597 -113.061 195.197ZM-106.704 157.791C-105.868 155.011 -103.56 152.868 -100.686 152.268C-103.56 151.667 -105.868 149.524 -106.704 146.744V157.791ZM-54.5817 152.268C-51.7075 152.868 -49.3996 155.01 -48.5633 157.79V146.745C-49.3997 149.525 -51.7075 151.667 -54.5817 152.268ZM-48.2253 200.72C-47.389 197.94 -45.0811 195.797 -42.2069 195.197C-45.0811 194.597 -47.389 192.454 -48.2253 189.674V200.72ZM-48.2253 -151.058C-47.389 -148.278 -45.0811 -146.135 -42.207 -145.535C-45.0811 -144.935 -47.389 -142.792 -48.2253 -140.012V-151.058ZM-48.5633 -193.987V-182.942C-49.3996 -185.722 -51.7075 -187.865 -54.5816 -188.465C-51.7075 -189.065 -49.3997 -191.208 -48.5633 -193.987ZM-106.704 -193.988C-105.868 -191.208 -103.56 -189.065 -100.686 -188.465C-103.56 -187.865 -105.868 -185.722 -106.704 -182.942V-193.988ZM-113.061 -145.535C-110.186 -146.135 -107.878 -148.278 -107.042 -151.058V-140.012C-107.878 -142.792 -110.186 -144.935 -113.061 -145.535ZM-165.183 -151.058C-164.347 -148.278 -162.039 -146.135 -159.165 -145.535C-162.039 -144.935 -164.347 -142.792 -165.183 -140.013V-151.058ZM-165.521 -193.987V-182.942C-166.358 -185.722 -168.665 -187.865 -171.539 -188.465C-168.665 -189.065 -166.358 -191.208 -165.521 -193.987ZM-48.2253 19.3082C-47.389 22.0881 -45.0811 24.2308 -42.2069 24.831C-45.0811 25.4312 -47.389 27.5738 -48.2253 30.3537V19.3082ZM-48.5633 -23.6212V-12.5759C-49.3996 -15.3558 -51.7075 -17.4984 -54.5817 -18.0986C-51.7075 -18.6988 -49.3997 -20.8414 -48.5633 -23.6212ZM-106.704 -23.6219C-105.868 -20.8418 -103.56 -18.6989 -100.686 -18.0986C-103.56 -17.4984 -105.868 -15.3556 -106.704 -12.5754V-23.6219ZM-113.061 24.831C-110.186 24.2307 -107.878 22.0879 -107.042 19.3078V30.3541C-107.878 27.574 -110.186 25.4312 -113.061 24.831ZM-165.183 19.3084C-164.347 22.0882 -162.039 24.2308 -159.165 24.831C-162.039 25.4312 -164.347 27.5737 -165.183 30.3536V19.3084ZM-165.521 -23.6212V-12.576C-166.358 -15.3559 -168.665 -17.4984 -171.539 -18.0986C-168.665 -18.6988 -166.358 -20.8414 -165.521 -23.6212ZM-106.704 -268.125V-279.171C-105.868 -276.391 -103.56 -274.248 -100.686 -273.648C-103.56 -273.048 -105.868 -270.905 -106.704 -268.125ZM-113.061 -230.718C-110.186 -231.319 -107.878 -233.461 -107.042 -236.242V-225.195C-107.878 -227.975 -110.186 -230.118 -113.061 -230.718ZM-165.183 -225.196C-164.347 -227.976 -162.039 -230.118 -159.165 -230.718C-162.039 -231.319 -164.347 -233.461 -165.183 -236.241V-225.196ZM-165.521 -279.17V-268.125C-166.358 -270.905 -168.665 -273.048 -171.539 -273.648C-168.665 -274.248 -166.358 -276.391 -165.521 -279.17ZM-157.521 -315.07H-114.704C-110.838 -315.07 -107.704 -311.936 -107.704 -308.07V-238.549C-107.704 -234.683 -110.838 -231.549 -114.704 -231.549H-157.521C-161.387 -231.549 -164.521 -234.683 -164.521 -238.549V-308.07C-164.521 -311.936 -161.387 -315.07 -157.521 -315.07ZM-173.183 -272.817H-216C-219.866 -272.817 -223 -269.683 -223 -265.817V-196.296C-223 -192.43 -219.866 -189.296 -216 -189.296H-173.183C-169.317 -189.296 -166.183 -192.43 -166.183 -196.296V-265.817C-166.183 -269.683 -169.317 -272.817 -173.183 -272.817ZM-157.521 -229.887H-114.704C-110.838 -229.887 -107.704 -226.753 -107.704 -222.887V-153.366C-107.704 -149.5 -110.838 -146.366 -114.704 -146.366H-157.521C-161.387 -146.366 -164.521 -149.5 -164.521 -153.366V-222.887C-164.521 -226.753 -161.387 -229.887 -157.521 -229.887ZM-99.0422 -358H-56.2253C-52.3593 -358 -49.2253 -354.866 -49.2253 -351V-281.479C-49.2253 -277.613 -52.3593 -274.479 -56.2253 -274.479H-99.0422C-102.908 -274.479 -106.042 -277.613 -106.042 -281.479V-351C-106.042 -354.866 -102.908 -358 -99.0422 -358ZM-48.2253 -225.196C-47.3889 -227.976 -45.0811 -230.118 -42.2069 -230.718C-45.0811 -231.319 -47.3889 -233.461 -48.2253 -236.241V-225.196ZM-48.5633 -279.171V-268.125C-49.3997 -270.905 -51.7075 -273.048 -54.5816 -273.648C-51.7075 -274.248 -49.3996 -276.391 -48.5633 -279.171ZM-40.5633 -315.07H2.25357C6.11957 -315.07 9.25357 -311.936 9.25357 -308.07V-238.549C9.25357 -234.683 6.11957 -231.549 2.25357 -231.549H-40.5633C-44.4293 -231.549 -47.5633 -234.683 -47.5633 -238.549V-308.07C-47.5633 -311.936 -44.4293 -315.07 -40.5633 -315.07ZM-56.2253 -272.817H-99.0421C-102.908 -272.817 -106.042 -269.683 -106.042 -265.817V-196.296C-106.042 -192.43 -102.908 -189.296 -99.0421 -189.296H-56.2253C-52.3593 -189.296 -49.2253 -192.43 -49.2253 -196.296V-265.817C-49.2253 -269.683 -52.3593 -272.817 -56.2253 -272.817ZM-40.5633 -229.887H2.25357C6.11957 -229.887 9.25357 -226.753 9.25357 -222.887V-153.366C9.25357 -149.5 6.11957 -146.366 2.25357 -146.366H-40.5633C-44.4293 -146.366 -47.5633 -149.5 -47.5633 -153.366V-222.887C-47.5633 -226.753 -44.4293 -229.887 -40.5633 -229.887ZM-216 -17.2676H-173.183C-169.317 -17.2676 -166.183 -14.1336 -166.183 -10.2676V59.2535C-166.183 63.1194 -169.317 66.2535 -173.183 66.2535H-216C-219.866 66.2535 -223 63.1195 -223 59.2535V-10.2676C-223 -14.1336 -219.866 -17.2676 -216 -17.2676ZM-106.704 72.6078V61.5613C-105.868 64.3414 -103.56 66.4843 -100.686 67.0845C-103.56 67.6848 -105.868 69.8276 -106.704 72.6078ZM-113.061 110.014C-110.186 109.414 -107.878 107.271 -107.042 104.491V115.537C-107.878 112.757 -110.186 110.614 -113.061 110.014ZM-165.183 115.537C-164.347 112.757 -162.039 110.614 -159.165 110.014C-162.039 109.414 -164.347 107.271 -165.183 104.491V115.537ZM-165.521 61.5619V72.6071C-166.358 69.8272 -168.665 67.6847 -171.539 67.0845C-168.665 66.4843 -166.358 64.3417 -165.521 61.5619ZM-157.521 25.662H-114.704C-110.838 25.662 -107.704 28.796 -107.704 32.662V102.183C-107.704 106.049 -110.838 109.183 -114.704 109.183H-157.521C-161.387 109.183 -164.521 106.049 -164.521 102.183V32.662C-164.521 28.796 -161.387 25.662 -157.521 25.662ZM-173.183 67.9155H-216C-219.866 67.9155 -223 71.0495 -223 74.9155V144.437C-223 148.303 -219.866 151.437 -216 151.437H-173.183C-169.317 151.437 -166.183 148.303 -166.183 144.437V74.9155C-166.183 71.0495 -169.317 67.9155 -173.183 67.9155ZM-157.521 110.845H-114.704C-110.838 110.845 -107.704 113.979 -107.704 117.845V187.366C-107.704 191.232 -110.838 194.366 -114.704 194.366H-157.521C-161.387 194.366 -164.521 191.232 -164.521 187.366V117.845C-164.521 113.979 -161.387 110.845 -157.521 110.845ZM-99.0422 -17.2676H-56.2253C-52.3593 -17.2676 -49.2253 -14.1336 -49.2253 -10.2676V59.2535C-49.2253 63.1195 -52.3593 66.2535 -56.2253 66.2535H-99.0422C-102.908 66.2535 -106.042 63.1195 -106.042 59.2535V-10.2676C-106.042 -14.1336 -102.908 -17.2676 -99.0422 -17.2676ZM-48.2253 115.537C-47.3889 112.757 -45.0811 110.614 -42.207 110.014C-45.0811 109.414 -47.3889 107.271 -48.2253 104.491V115.537ZM-48.5633 61.5617V72.6071C-49.3997 69.8272 -51.7075 67.6847 -54.5816 67.0845C-51.7075 66.4843 -49.3996 64.3416 -48.5633 61.5617ZM-40.5633 25.662H2.25357C6.11957 25.662 9.25357 28.796 9.25357 32.662V102.183C9.25357 106.049 6.11957 109.183 2.25357 109.183H-40.5633C-44.4293 109.183 -47.5633 106.049 -47.5633 102.183V32.662C-47.5633 28.796 -44.4293 25.662 -40.5633 25.662ZM-56.2253 67.9155H-99.0421C-102.908 67.9155 -106.042 71.0495 -106.042 74.9155V144.437C-106.042 148.303 -102.908 151.437 -99.0421 151.437H-56.2253C-52.3593 151.437 -49.2253 148.303 -49.2253 144.437V74.9155C-49.2253 71.0495 -52.3593 67.9155 -56.2253 67.9155ZM-40.5633 110.845H2.25357C6.11957 110.845 9.25357 113.979 9.25357 117.845V187.366C9.25357 191.232 6.11957 194.366 2.25357 194.366H-40.5633C-44.4293 194.366 -47.5633 191.232 -47.5633 187.366V117.845C-47.5633 113.979 -44.4293 110.845 -40.5633 110.845ZM-173.183 -187.634H-216C-219.866 -187.634 -223 -184.5 -223 -180.634V-111.113C-223 -107.247 -219.866 -104.113 -216 -104.113H-173.183C-169.317 -104.113 -166.183 -107.247 -166.183 -111.113V-180.634C-166.183 -184.5 -169.317 -187.634 -173.183 -187.634ZM-106.704 -108.805V-97.7584C-105.868 -100.539 -103.56 -102.681 -100.686 -103.282C-103.56 -103.882 -105.868 -106.025 -106.704 -108.805ZM-107.042 -65.8755C-107.878 -63.0953 -110.186 -60.9524 -113.061 -60.3521C-110.186 -59.7519 -107.878 -57.609 -107.042 -54.8288V-65.8755ZM-159.165 -60.3521C-162.039 -59.752 -164.347 -57.6094 -165.183 -54.8295V-65.8747C-164.347 -63.0949 -162.039 -60.9523 -159.165 -60.3521ZM-165.521 -97.7591V-108.804C-166.358 -106.024 -168.665 -103.882 -171.539 -103.282C-168.665 -102.682 -166.358 -100.539 -165.521 -97.7591ZM-114.704 -144.704H-157.521C-161.387 -144.704 -164.521 -141.57 -164.521 -137.704V-68.1831C-164.521 -64.3171 -161.387 -61.1831 -157.521 -61.1831H-114.704C-110.838 -61.1831 -107.704 -64.3171 -107.704 -68.1831V-137.704C-107.704 -141.57 -110.838 -144.704 -114.704 -144.704ZM-216 -102.451H-173.183C-169.317 -102.451 -166.183 -99.3167 -166.183 -95.4507V-25.9296C-166.183 -22.0636 -169.317 -18.9296 -173.183 -18.9296H-216C-219.866 -18.9296 -223 -22.0636 -223 -25.9296V-95.4507C-223 -99.3167 -219.866 -102.451 -216 -102.451ZM-114.704 -59.5211H-157.521C-161.387 -59.5211 -164.521 -56.3871 -164.521 -52.5211V17C-164.521 20.866 -161.387 24 -157.521 24H-114.704C-110.838 24 -107.704 20.866 -107.704 16.9999V-52.5211C-107.704 -56.3871 -110.838 -59.5211 -114.704 -59.5211ZM-56.2253 -187.634H-99.0422C-102.908 -187.634 -106.042 -184.5 -106.042 -180.634V-111.113C-106.042 -107.247 -102.908 -104.113 -99.0422 -104.113H-56.2253C-52.3593 -104.113 -49.2253 -107.247 -49.2253 -111.113V-180.634C-49.2253 -184.5 -52.3593 -187.634 -56.2253 -187.634ZM-42.207 -60.3521C-45.0811 -59.752 -47.3889 -57.6094 -48.2253 -54.8295V-65.8747C-47.3889 -63.0949 -45.0811 -60.9523 -42.207 -60.3521ZM-48.5633 -97.7591V-108.804C-49.3996 -106.025 -51.7075 -103.882 -54.5816 -103.282C-51.7075 -102.682 -49.3997 -100.539 -48.5633 -97.7591ZM2.25357 -144.704H-40.5633C-44.4293 -144.704 -47.5633 -141.57 -47.5633 -137.704V-68.1831C-47.5633 -64.3171 -44.4293 -61.1831 -40.5633 -61.1831H2.25357C6.11957 -61.1831 9.25357 -64.3171 9.25357 -68.1831V-137.704C9.25357 -141.57 6.11957 -144.704 2.25357 -144.704ZM-99.0421 -102.451H-56.2253C-52.3593 -102.451 -49.2253 -99.3167 -49.2253 -95.4507V-25.9296C-49.2253 -22.0636 -52.3593 -18.9296 -56.2253 -18.9296H-99.0421C-102.908 -18.9296 -106.042 -22.0636 -106.042 -25.9296V-95.4507C-106.042 -99.3167 -102.908 -102.451 -99.0421 -102.451ZM2.25357 -59.5211H-40.5633C-44.4293 -59.5211 -47.5633 -56.3871 -47.5633 -52.5211V17C-47.5633 20.866 -44.4293 24 -40.5633 24H2.25357C6.11957 24 9.25357 20.866 9.25357 16.9999V-52.5211C9.25357 -56.3871 6.11957 -59.5211 2.25357 -59.5211ZM-99.0422 153.099H-56.2253C-52.3593 153.099 -49.2253 156.233 -49.2253 160.099V229.62C-49.2253 233.486 -52.3593 236.62 -56.2253 236.62H-99.0422C-102.908 236.62 -106.042 233.486 -106.042 229.62V160.099C-106.042 156.233 -102.908 153.099 -99.0422 153.099ZM-113.061 280.38C-110.186 279.78 -107.878 277.637 -107.042 274.857V285.904C-107.878 283.123 -110.186 280.98 -113.061 280.38ZM-100.686 237.451C-103.56 238.051 -105.868 240.194 -106.704 242.974V231.927C-105.868 234.708 -103.56 236.85 -100.686 237.451ZM-48.2253 285.903C-47.3889 283.123 -45.0811 280.98 -42.207 280.38C-45.0811 279.78 -47.3889 277.638 -48.2253 274.858V285.903ZM-48.5633 231.928V242.973C-49.3997 240.193 -51.7075 238.051 -54.5817 237.451C-51.7075 236.85 -49.3996 234.708 -48.5633 231.928ZM-40.5633 196.028H2.25357C6.11957 196.028 9.25357 199.162 9.25357 203.028V272.549C9.25357 276.415 6.11957 279.549 2.25357 279.549H-40.5633C-44.4293 279.549 -47.5633 276.415 -47.5633 272.549V203.028C-47.5633 199.162 -44.4293 196.028 -40.5633 196.028ZM-56.2253 238.282H-99.0421C-102.908 238.282 -106.042 241.416 -106.042 245.282V314.803C-106.042 318.669 -102.908 321.803 -99.0421 321.803H-56.2253C-52.3593 321.803 -49.2253 318.669 -49.2253 314.803V245.282C-49.2253 241.416 -52.3593 238.282 -56.2253 238.282ZM-40.5633 281.211H2.25357C6.11957 281.211 9.25357 284.345 9.25357 288.211V357.732C9.25357 361.598 6.11957 364.732 2.25357 364.732H-40.5633C-44.4293 364.732 -47.5633 361.598 -47.5633 357.732V288.211C-47.5633 284.345 -44.4293 281.211 -40.5633 281.211ZM-216 153.099H-173.183C-169.317 153.099 -166.183 156.233 -166.183 160.099V229.62C-166.183 233.486 -169.317 236.62 -173.183 236.62H-216C-219.866 236.62 -223 233.486 -223 229.62V160.099C-223 156.233 -219.866 153.099 -216 153.099ZM-165.183 285.903C-164.347 283.123 -162.039 280.98 -159.165 280.38C-162.039 279.78 -164.347 277.638 -165.183 274.858V285.903ZM-165.521 231.928V242.973C-166.358 240.193 -168.665 238.051 -171.539 237.451C-168.665 236.851 -166.358 234.708 -165.521 231.928ZM-157.521 196.028H-114.704C-110.838 196.028 -107.704 199.162 -107.704 203.028V272.549C-107.704 276.415 -110.838 279.549 -114.704 279.549H-157.521C-161.387 279.549 -164.521 276.415 -164.521 272.549V203.028C-164.521 199.162 -161.387 196.028 -157.521 196.028ZM-173.183 238.282H-216C-219.866 238.282 -223 241.416 -223 245.282V314.803C-223 318.669 -219.866 321.803 -216 321.803H-173.183C-169.317 321.803 -166.183 318.669 -166.183 314.803V245.282C-166.183 241.416 -169.317 238.282 -173.183 238.282ZM-157.521 281.211H-114.704C-110.838 281.211 -107.704 284.345 -107.704 288.211V357.732C-107.704 361.598 -110.838 364.732 -114.704 364.732H-157.521C-161.387 364.732 -164.521 361.598 -164.521 357.732V288.211C-164.521 284.345 -161.387 281.211 -157.521 281.211ZM60.7324 -358H17.9155C14.0495 -358 10.9155 -354.866 10.9155 -351V-281.479C10.9155 -277.613 14.0495 -274.479 17.9155 -274.479H60.7324C64.5984 -274.479 67.7324 -277.613 67.7324 -281.479V-351C67.7324 -354.866 64.5984 -358 60.7324 -358ZM127.211 -279.17V-268.126C128.048 -270.905 130.356 -273.048 133.23 -273.648C130.355 -274.248 128.048 -276.391 127.211 -279.17ZM126.873 -236.241C126.037 -233.461 123.729 -231.318 120.855 -230.718C123.729 -230.118 126.037 -227.976 126.873 -225.196V-236.241ZM74.7509 -230.718C71.8765 -230.118 69.5686 -227.975 68.7324 -225.195V-236.241C69.5686 -233.461 71.8765 -231.319 74.7509 -230.718ZM68.3944 -268.125V-279.171C67.5582 -276.391 65.2503 -274.248 62.376 -273.648C65.2503 -273.048 67.5582 -270.905 68.3944 -268.125ZM119.211 -315.07H76.3944C72.5284 -315.07 69.3944 -311.936 69.3944 -308.07V-238.549C69.3944 -234.683 72.5284 -231.549 76.3944 -231.549H119.211C123.077 -231.549 126.211 -234.683 126.211 -238.549V-308.07C126.211 -311.936 123.077 -315.07 119.211 -315.07ZM17.9155 -272.817H60.7324C64.5983 -272.817 67.7324 -269.683 67.7324 -265.817V-196.296C67.7324 -192.43 64.5983 -189.296 60.7324 -189.296H17.9155C14.0495 -189.296 10.9155 -192.43 10.9155 -196.296V-265.817C10.9155 -269.683 14.0495 -272.817 17.9155 -272.817ZM119.211 -229.887H76.3944C72.5284 -229.887 69.3944 -226.753 69.3944 -222.887V-153.366C69.3944 -149.5 72.5284 -146.366 76.3944 -146.366H119.211C123.077 -146.366 126.211 -149.5 126.211 -153.366V-222.887C126.211 -226.753 123.077 -229.887 119.211 -229.887ZM177.69 -358H134.873C131.007 -358 127.873 -354.866 127.873 -351V-281.479C127.873 -277.613 131.007 -274.479 134.873 -274.479H177.69C181.556 -274.479 184.69 -277.613 184.69 -281.479V-351C184.69 -354.866 181.556 -358 177.69 -358ZM191.708 -230.718C188.834 -230.118 186.526 -227.976 185.69 -225.196V-236.241C186.526 -233.461 188.834 -231.319 191.708 -230.718ZM185.352 -268.125V-279.17C184.516 -276.391 182.208 -274.248 179.334 -273.648C182.208 -273.048 184.516 -270.905 185.352 -268.125ZM236.169 -315.07H193.352C189.486 -315.07 186.352 -311.936 186.352 -308.07V-238.549C186.352 -234.683 189.486 -231.549 193.352 -231.549H236.169C240.035 -231.549 243.169 -234.683 243.169 -238.549V-308.07C243.169 -311.936 240.035 -315.07 236.169 -315.07ZM134.873 -272.817H177.69C181.556 -272.817 184.69 -269.683 184.69 -265.817V-196.296C184.69 -192.43 181.556 -189.296 177.69 -189.296H134.873C131.007 -189.296 127.873 -192.43 127.873 -196.296V-265.817C127.873 -269.683 131.007 -272.817 134.873 -272.817ZM236.169 -229.887H193.352C189.486 -229.887 186.352 -226.753 186.352 -222.887V-153.366C186.352 -149.5 189.486 -146.366 193.352 -146.366H236.169C240.035 -146.366 243.169 -149.5 243.169 -153.366V-222.887C243.169 -226.753 240.035 -229.887 236.169 -229.887ZM17.9155 -17.2676H60.7324C64.5984 -17.2676 67.7324 -14.1336 67.7324 -10.2676V59.2535C67.7324 63.1194 64.5984 66.2535 60.7324 66.2535H17.9155C14.0495 66.2535 10.9155 63.1195 10.9155 59.2535V-10.2676C10.9155 -14.1336 14.0495 -17.2676 17.9155 -17.2676ZM127.211 72.6068V61.5621C128.048 64.3418 130.355 66.4843 133.23 67.0845C130.356 67.6846 128.048 69.8271 127.211 72.6068ZM120.855 110.014C123.729 109.414 126.037 107.271 126.873 104.492V115.536C126.037 112.757 123.729 110.614 120.855 110.014ZM68.7324 115.537C69.5686 112.757 71.8765 110.614 74.7508 110.014C71.8765 109.414 69.5685 107.271 68.7324 104.491V115.537ZM68.3944 61.5616V72.6076C67.5582 69.8275 65.2503 67.6847 62.376 67.0845C65.2502 66.4843 67.5582 64.3416 68.3944 61.5616ZM76.3944 25.662H119.211C123.077 25.662 126.211 28.796 126.211 32.662V102.183C126.211 106.049 123.077 109.183 119.211 109.183H76.3944C72.5284 109.183 69.3944 106.049 69.3944 102.183V32.662C69.3944 28.796 72.5284 25.662 76.3944 25.662ZM60.7324 67.9155H17.9155C14.0495 67.9155 10.9155 71.0495 10.9155 74.9155V144.437C10.9155 148.303 14.0495 151.437 17.9155 151.437H60.7324C64.5983 151.437 67.7324 148.303 67.7324 144.437V74.9155C67.7324 71.0495 64.5983 67.9155 60.7324 67.9155ZM76.3944 110.845H119.211C123.077 110.845 126.211 113.979 126.211 117.845V187.366C126.211 191.232 123.077 194.366 119.211 194.366H76.3944C72.5284 194.366 69.3944 191.232 69.3944 187.366V117.845C69.3944 113.979 72.5284 110.845 76.3944 110.845ZM134.873 -17.2676H177.69C181.556 -17.2676 184.69 -14.1336 184.69 -10.2676V59.2535C184.69 63.1195 181.556 66.2535 177.69 66.2535H134.873C131.007 66.2535 127.873 63.1195 127.873 59.2535V-10.2676C127.873 -14.1336 131.007 -17.2676 134.873 -17.2676ZM185.69 115.537C186.526 112.757 188.834 110.614 191.708 110.014C188.834 109.414 186.526 107.271 185.69 104.491V115.537ZM185.352 61.562V72.6071C184.516 69.8272 182.208 67.6847 179.334 67.0845C182.208 66.4843 184.516 64.3418 185.352 61.562ZM193.352 25.662H236.169C240.035 25.662 243.169 28.796 243.169 32.662V102.183C243.169 106.049 240.035 109.183 236.169 109.183H193.352C189.486 109.183 186.352 106.049 186.352 102.183V32.662C186.352 28.796 189.486 25.662 193.352 25.662ZM177.69 67.9155H134.873C131.007 67.9155 127.873 71.0495 127.873 74.9155V144.437C127.873 148.303 131.007 151.437 134.873 151.437H177.69C181.556 151.437 184.69 148.303 184.69 144.437V74.9155C184.69 71.0495 181.556 67.9155 177.69 67.9155ZM193.352 110.845H236.169C240.035 110.845 243.169 113.979 243.169 117.845V187.366C243.169 191.232 240.035 194.366 236.169 194.366H193.352C189.486 194.366 186.352 191.232 186.352 187.366V117.845C186.352 113.979 189.486 110.845 193.352 110.845ZM60.7324 -187.634H17.9155C14.0495 -187.634 10.9155 -184.5 10.9155 -180.634V-111.113C10.9155 -107.247 14.0495 -104.113 17.9155 -104.113H60.7324C64.5984 -104.113 67.7324 -107.247 67.7324 -111.113V-180.634C67.7324 -184.5 64.5984 -187.634 60.7324 -187.634ZM127.211 -108.804V-97.7594C128.048 -100.539 130.356 -102.682 133.23 -103.282C130.355 -103.882 128.048 -106.024 127.211 -108.804ZM126.873 -65.8745C126.037 -63.0948 123.729 -60.9523 120.855 -60.3521C123.729 -59.752 126.037 -57.6095 126.873 -54.8298V-65.8745ZM74.7508 -60.3521C71.8765 -59.7519 69.5686 -57.6091 68.7324 -54.829V-65.8753C69.5685 -63.0952 71.8765 -60.9524 74.7508 -60.3521ZM68.3944 -97.7585V-108.805C67.5582 -106.025 65.2502 -103.882 62.376 -103.282C65.2503 -102.681 67.5582 -100.539 68.3944 -97.7585ZM119.211 -144.704H76.3944C72.5284 -144.704 69.3944 -141.57 69.3944 -137.704V-68.1831C69.3944 -64.3171 72.5284 -61.1831 76.3944 -61.1831H119.211C123.077 -61.1831 126.211 -64.3171 126.211 -68.1831V-137.704C126.211 -141.57 123.077 -144.704 119.211 -144.704ZM17.9155 -102.451H60.7324C64.5983 -102.451 67.7324 -99.3167 67.7324 -95.4507V-25.9296C67.7324 -22.0636 64.5983 -18.9296 60.7324 -18.9296H17.9155C14.0495 -18.9296 10.9155 -22.0636 10.9155 -25.9296V-95.4507C10.9155 -99.3167 14.0495 -102.451 17.9155 -102.451ZM119.211 -59.5211H76.3944C72.5284 -59.5211 69.3944 -56.3871 69.3944 -52.5211V17C69.3944 20.866 72.5284 24 76.3944 24H119.211C123.077 24 126.211 20.866 126.211 16.9999V-52.5211C126.211 -56.3871 123.077 -59.5211 119.211 -59.5211ZM177.69 -187.634H134.873C131.007 -187.634 127.873 -184.5 127.873 -180.634V-111.113C127.873 -107.247 131.007 -104.113 134.873 -104.113H177.69C181.556 -104.113 184.69 -107.247 184.69 -111.113V-180.634C184.69 -184.5 181.556 -187.634 177.69 -187.634ZM191.708 -60.3521C188.834 -59.752 186.526 -57.6094 185.69 -54.8295V-65.8747C186.526 -63.0949 188.834 -60.9523 191.708 -60.3521ZM185.352 -97.7591V-108.804C184.516 -106.024 182.208 -103.882 179.334 -103.282C182.208 -102.682 184.516 -100.539 185.352 -97.7591ZM236.169 -144.704H193.352C189.486 -144.704 186.352 -141.57 186.352 -137.704V-68.1831C186.352 -64.3171 189.486 -61.1831 193.352 -61.1831H236.169C240.035 -61.1831 243.169 -64.3171 243.169 -68.1831V-137.704C243.169 -141.57 240.035 -144.704 236.169 -144.704ZM134.873 -102.451H177.69C181.556 -102.451 184.69 -99.3167 184.69 -95.4507V-25.9296C184.69 -22.0636 181.556 -18.9296 177.69 -18.9296H134.873C131.007 -18.9296 127.873 -22.0636 127.873 -25.9296V-95.4507C127.873 -99.3167 131.007 -102.451 134.873 -102.451ZM236.169 -59.5211H193.352C189.486 -59.5211 186.352 -56.3871 186.352 -52.5211V17C186.352 20.866 189.486 24 193.352 24H236.169C240.035 24 243.169 20.866 243.169 16.9999V-52.5211C243.169 -56.3871 240.035 -59.5211 236.169 -59.5211ZM134.873 153.099H177.69C181.556 153.099 184.69 156.233 184.69 160.099V229.62C184.69 233.486 181.556 236.62 177.69 236.62H134.873C131.007 236.62 127.873 233.486 127.873 229.62V160.099C127.873 156.233 131.007 153.099 134.873 153.099ZM120.855 280.38C123.729 279.78 126.037 277.638 126.873 274.858V285.903C126.037 283.123 123.729 280.98 120.855 280.38ZM133.23 237.451C130.356 238.051 128.048 240.193 127.211 242.973V231.928C128.048 234.708 130.355 236.851 133.23 237.451ZM185.69 285.903C186.526 283.123 188.834 280.98 191.708 280.38C188.834 279.78 186.526 277.638 185.69 274.858V285.903ZM185.352 231.928V242.973C184.516 240.193 182.208 238.051 179.334 237.451C182.208 236.851 184.516 234.708 185.352 231.928ZM193.352 196.028H236.169C240.035 196.028 243.169 199.162 243.169 203.028V272.549C243.169 276.415 240.035 279.549 236.169 279.549H193.352C189.486 279.549 186.352 276.415 186.352 272.549V203.028C186.352 199.162 189.486 196.028 193.352 196.028ZM177.69 238.282H134.873C131.007 238.282 127.873 241.416 127.873 245.282V314.803C127.873 318.669 131.007 321.803 134.873 321.803H177.69C181.556 321.803 184.69 318.669 184.69 314.803V245.282C184.69 241.416 181.556 238.282 177.69 238.282ZM193.352 281.211H236.169C240.035 281.211 243.169 284.345 243.169 288.211V357.732C243.169 361.598 240.035 364.732 236.169 364.732H193.352C189.486 364.732 186.352 361.598 186.352 357.732V288.211C186.352 284.345 189.486 281.211 193.352 281.211ZM17.9155 153.099H60.7324C64.5984 153.099 67.7324 156.233 67.7324 160.099V229.62C67.7324 233.486 64.5984 236.62 60.7324 236.62H17.9155C14.0495 236.62 10.9155 233.486 10.9155 229.62V160.099C10.9155 156.233 14.0495 153.099 17.9155 153.099ZM68.7324 285.903C69.5686 283.123 71.8765 280.98 74.7508 280.38C71.8765 279.78 69.5685 277.637 68.7324 274.857V285.903ZM68.3944 231.928V242.974C67.5582 240.194 65.2503 238.051 62.376 237.451C65.2502 236.851 67.5582 234.708 68.3944 231.928ZM76.3944 196.028H119.211C123.077 196.028 126.211 199.162 126.211 203.028V272.549C126.211 276.415 123.077 279.549 119.211 279.549H76.3944C72.5284 279.549 69.3944 276.415 69.3944 272.549V203.028C69.3944 199.162 72.5284 196.028 76.3944 196.028ZM60.7324 238.282H17.9155C14.0495 238.282 10.9155 241.416 10.9155 245.282V314.803C10.9155 318.669 14.0495 321.803 17.9155 321.803H60.7324C64.5983 321.803 67.7324 318.669 67.7324 314.803V245.282C67.7324 241.416 64.5983 238.282 60.7324 238.282ZM76.3944 281.211H119.211C123.077 281.211 126.211 284.345 126.211 288.211V357.732C126.211 361.598 123.077 364.732 119.211 364.732H76.3944C72.5284 364.732 69.3944 361.598 69.3944 357.732V288.211C69.3944 284.345 72.5284 281.211 76.3944 281.211ZM294.648 -358H251.831C247.965 -358 244.831 -354.866 244.831 -351V-281.479C244.831 -277.613 247.965 -274.479 251.831 -274.479H294.648C298.514 -274.479 301.648 -277.613 301.648 -281.479V-351C301.648 -354.866 298.514 -358 294.648 -358ZM361.127 -279.171V-268.125C361.963 -270.905 364.271 -273.048 367.145 -273.648C364.271 -274.248 361.963 -276.391 361.127 -279.171ZM360.789 -236.241C359.952 -233.461 357.645 -231.319 354.77 -230.718C357.645 -230.118 359.952 -227.976 360.789 -225.196V-236.241ZM308.666 -230.718C305.792 -230.118 303.484 -227.975 302.648 -225.195V-236.241C303.484 -233.461 305.792 -231.319 308.666 -230.718ZM302.31 -268.125V-279.171C301.474 -276.391 299.166 -274.248 296.292 -273.648C299.166 -273.048 301.474 -270.905 302.31 -268.125ZM353.127 -315.07H310.31C306.444 -315.07 303.31 -311.936 303.31 -308.07V-238.549C303.31 -234.683 306.444 -231.549 310.31 -231.549H353.127C356.993 -231.549 360.127 -234.683 360.127 -238.549V-308.07C360.127 -311.936 356.993 -315.07 353.127 -315.07ZM251.831 -272.817H294.648C298.514 -272.817 301.648 -269.683 301.648 -265.817V-196.296C301.648 -192.43 298.514 -189.296 294.648 -189.296H251.831C247.965 -189.296 244.831 -192.43 244.831 -196.296V-265.817C244.831 -269.683 247.965 -272.817 251.831 -272.817ZM353.127 -229.887H310.31C306.444 -229.887 303.31 -226.753 303.31 -222.887V-153.366C303.31 -149.5 306.444 -146.366 310.31 -146.366H353.127C356.993 -146.366 360.127 -149.5 360.127 -153.366V-222.887C360.127 -226.753 356.993 -229.887 353.127 -229.887ZM411.606 -358H368.789C364.923 -358 361.789 -354.866 361.789 -351V-281.479C361.789 -277.613 364.923 -274.479 368.789 -274.479H411.606C415.472 -274.479 418.606 -277.613 418.606 -281.479V-351C418.606 -354.866 415.472 -358 411.606 -358ZM425.624 -230.718C422.75 -230.118 420.442 -227.975 419.606 -225.195V-236.241C420.442 -233.461 422.75 -231.319 425.624 -230.718ZM419.268 -268.125V-279.17C418.431 -276.391 416.124 -274.248 413.249 -273.648C416.124 -273.048 418.431 -270.905 419.268 -268.125ZM470.085 -315.07H427.268C423.402 -315.07 420.268 -311.936 420.268 -308.07V-238.549C420.268 -234.683 423.402 -231.549 427.268 -231.549H470.085C473.951 -231.549 477.085 -234.683 477.085 -238.549V-308.07C477.085 -311.936 473.951 -315.07 470.085 -315.07ZM368.789 -272.817H411.606C415.472 -272.817 418.606 -269.683 418.606 -265.817V-196.296C418.606 -192.43 415.472 -189.296 411.606 -189.296H368.789C364.923 -189.296 361.789 -192.43 361.789 -196.296V-265.817C361.789 -269.683 364.923 -272.817 368.789 -272.817ZM470.085 -229.887H427.268C423.402 -229.887 420.268 -226.753 420.268 -222.887V-153.366C420.268 -149.5 423.402 -146.366 427.268 -146.366H470.085C473.951 -146.366 477.085 -149.5 477.085 -153.366V-222.887C477.085 -226.753 473.951 -229.887 470.085 -229.887ZM251.831 -17.2676H294.648C298.514 -17.2676 301.648 -14.1336 301.648 -10.2676V59.2535C301.648 63.1194 298.514 66.2535 294.648 66.2535H251.831C247.965 66.2535 244.831 63.1195 244.831 59.2535V-10.2676C244.831 -14.1336 247.965 -17.2676 251.831 -17.2676ZM361.127 72.6071V61.5615C361.963 64.3415 364.271 66.4842 367.145 67.0845C364.271 67.6846 361.963 69.8272 361.127 72.6071ZM354.771 110.014C357.645 109.414 359.952 107.271 360.789 104.491V115.537C359.952 112.757 357.645 110.614 354.771 110.014ZM302.648 115.537C303.484 112.757 305.792 110.614 308.666 110.014C305.792 109.414 303.484 107.271 302.648 104.491V115.537ZM302.31 61.561V72.6076C301.474 69.8275 299.166 67.6847 296.291 67.0845C299.166 66.4842 301.474 64.3412 302.31 61.561ZM310.31 25.662H353.127C356.993 25.662 360.127 28.796 360.127 32.662V102.183C360.127 106.049 356.993 109.183 353.127 109.183H310.31C306.444 109.183 303.31 106.049 303.31 102.183V32.662C303.31 28.796 306.444 25.662 310.31 25.662ZM294.648 67.9155H251.831C247.965 67.9155 244.831 71.0495 244.831 74.9155V144.437C244.831 148.303 247.965 151.437 251.831 151.437H294.648C298.514 151.437 301.648 148.303 301.648 144.437V74.9155C301.648 71.0495 298.514 67.9155 294.648 67.9155ZM310.31 110.845H353.127C356.993 110.845 360.127 113.979 360.127 117.845V187.366C360.127 191.232 356.993 194.366 353.127 194.366H310.31C306.444 194.366 303.31 191.232 303.31 187.366V117.845C303.31 113.979 306.444 110.845 310.31 110.845ZM368.789 -17.2676H411.606C415.472 -17.2676 418.606 -14.1336 418.606 -10.2676V59.2535C418.606 63.1195 415.472 66.2535 411.606 66.2535H368.789C364.923 66.2535 361.789 63.1195 361.789 59.2535V-10.2676C361.789 -14.1336 364.923 -17.2676 368.789 -17.2676ZM419.606 115.537C420.442 112.757 422.75 110.614 425.624 110.014C422.75 109.414 420.442 107.271 419.606 104.491V115.537ZM419.268 61.562V72.6073C418.431 69.8274 416.124 67.6847 413.249 67.0845C416.124 66.4843 418.431 64.3418 419.268 61.562ZM427.268 25.662H470.085C473.951 25.662 477.085 28.796 477.085 32.662V102.183C477.085 106.049 473.951 109.183 470.085 109.183H427.268C423.402 109.183 420.268 106.049 420.268 102.183V32.662C420.268 28.796 423.402 25.662 427.268 25.662ZM411.606 67.9155H368.789C364.923 67.9155 361.789 71.0495 361.789 74.9155V144.437C361.789 148.303 364.923 151.437 368.789 151.437H411.606C415.472 151.437 418.606 148.303 418.606 144.437V74.9155C418.606 71.0495 415.472 67.9155 411.606 67.9155ZM427.268 110.845H470.085C473.951 110.845 477.085 113.979 477.085 117.845V187.366C477.085 191.232 473.951 194.366 470.085 194.366H427.268C423.402 194.366 420.268 191.232 420.268 187.366V117.845C420.268 113.979 423.402 110.845 427.268 110.845ZM294.648 -187.634H251.831C247.965 -187.634 244.831 -184.5 244.831 -180.634V-111.113C244.831 -107.247 247.965 -104.113 251.831 -104.113H294.648C298.514 -104.113 301.648 -107.247 301.648 -111.113V-180.634C301.648 -184.5 298.514 -187.634 294.648 -187.634ZM361.127 -108.805V-97.7591C361.963 -100.539 364.271 -102.682 367.145 -103.282C364.271 -103.882 361.963 -106.025 361.127 -108.805ZM360.789 -65.8747C359.952 -63.0949 357.645 -60.9523 354.771 -60.3521C357.645 -59.752 359.952 -57.6094 360.789 -54.8296V-65.8747ZM308.666 -60.3521C305.792 -59.7519 303.484 -57.6091 302.648 -54.829V-65.8753C303.484 -63.0952 305.792 -60.9524 308.666 -60.3521ZM302.31 -97.7585V-108.805C301.474 -106.025 299.166 -103.882 296.291 -103.282C299.166 -102.682 301.474 -100.539 302.31 -97.7585ZM353.127 -144.704H310.31C306.444 -144.704 303.31 -141.57 303.31 -137.704V-68.1831C303.31 -64.3171 306.444 -61.1831 310.31 -61.1831H353.127C356.993 -61.1831 360.127 -64.3171 360.127 -68.1831V-137.704C360.127 -141.57 356.993 -144.704 353.127 -144.704ZM251.831 -102.451H294.648C298.514 -102.451 301.648 -99.3167 301.648 -95.4507V-25.9296C301.648 -22.0636 298.514 -18.9296 294.648 -18.9296H251.831C247.965 -18.9296 244.831 -22.0636 244.831 -25.9296V-95.4507C244.831 -99.3167 247.965 -102.451 251.831 -102.451ZM353.127 -59.5211H310.31C306.444 -59.5211 303.31 -56.3871 303.31 -52.5211V17C303.31 20.866 306.444 24 310.31 24H353.127C356.993 24 360.127 20.866 360.127 16.9999V-52.5211C360.127 -56.3871 356.993 -59.5211 353.127 -59.5211ZM411.606 -187.634H368.789C364.923 -187.634 361.789 -184.5 361.789 -180.634V-111.113C361.789 -107.247 364.923 -104.113 368.789 -104.113H411.606C415.472 -104.113 418.606 -107.247 418.606 -111.113V-180.634C418.606 -184.5 415.472 -187.634 411.606 -187.634ZM425.624 -60.3521C422.75 -59.7519 420.442 -57.6092 419.606 -54.8293V-65.875C420.442 -63.095 422.75 -60.9523 425.624 -60.3521ZM419.268 -97.7589V-108.804C418.431 -106.024 416.124 -103.882 413.249 -103.282C416.124 -102.681 418.431 -100.539 419.268 -97.7589ZM470.085 -144.704H427.268C423.402 -144.704 420.268 -141.57 420.268 -137.704V-68.1831C420.268 -64.3171 423.402 -61.1831 427.268 -61.1831H470.085C473.951 -61.1831 477.085 -64.3171 477.085 -68.1831V-137.704C477.085 -141.57 473.951 -144.704 470.085 -144.704ZM368.789 -102.451H411.606C415.472 -102.451 418.606 -99.3167 418.606 -95.4507V-25.9296C418.606 -22.0636 415.472 -18.9296 411.606 -18.9296H368.789C364.923 -18.9296 361.789 -22.0636 361.789 -25.9296V-95.4507C361.789 -99.3167 364.923 -102.451 368.789 -102.451ZM470.085 -59.5211H427.268C423.402 -59.5211 420.268 -56.3871 420.268 -52.5211V17C420.268 20.866 423.402 24 427.268 24H470.085C473.951 24 477.085 20.866 477.085 16.9999V-52.5211C477.085 -56.3871 473.951 -59.5211 470.085 -59.5211ZM368.789 153.099H411.606C415.472 153.099 418.606 156.233 418.606 160.099V229.62C418.606 233.486 415.472 236.62 411.606 236.62H368.789C364.923 236.62 361.789 233.486 361.789 229.62V160.099C361.789 156.233 364.923 153.099 368.789 153.099ZM354.771 280.38C357.645 279.78 359.952 277.638 360.789 274.858V285.903C359.952 283.123 357.645 280.98 354.771 280.38ZM367.145 237.451C364.271 238.051 361.963 240.193 361.127 242.973V231.928C361.963 234.708 364.271 236.85 367.145 237.451ZM419.606 285.903C420.442 283.123 422.75 280.98 425.624 280.38C422.75 279.78 420.442 277.637 419.606 274.857V285.903ZM419.268 231.928V242.974C418.431 240.194 416.124 238.051 413.249 237.451C416.123 236.851 418.431 234.708 419.268 231.928ZM427.268 196.028H470.085C473.951 196.028 477.085 199.162 477.085 203.028V272.549C477.085 276.415 473.951 279.549 470.085 279.549H427.268C423.402 279.549 420.268 276.415 420.268 272.549V203.028C420.268 199.162 423.402 196.028 427.268 196.028ZM411.606 238.282H368.789C364.923 238.282 361.789 241.416 361.789 245.282V314.803C361.789 318.669 364.923 321.803 368.789 321.803H411.606C415.472 321.803 418.606 318.669 418.606 314.803V245.282C418.606 241.416 415.472 238.282 411.606 238.282ZM427.268 281.211H470.085C473.951 281.211 477.085 284.345 477.085 288.211V357.732C477.085 361.598 473.951 364.732 470.085 364.732H427.268C423.402 364.732 420.268 361.598 420.268 357.732V288.211C420.268 284.345 423.402 281.211 427.268 281.211ZM251.831 153.099H294.648C298.514 153.099 301.648 156.233 301.648 160.099V229.62C301.648 233.486 298.514 236.62 294.648 236.62H251.831C247.965 236.62 244.831 233.486 244.831 229.62V160.099C244.831 156.233 247.965 153.099 251.831 153.099ZM302.648 285.903C303.484 283.123 305.792 280.98 308.666 280.38C305.792 279.78 303.484 277.637 302.648 274.857V285.903ZM302.31 231.927V242.974C301.474 240.194 299.166 238.051 296.291 237.451C299.166 236.85 301.474 234.707 302.31 231.927ZM310.31 196.028H353.127C356.993 196.028 360.127 199.162 360.127 203.028V272.549C360.127 276.415 356.993 279.549 353.127 279.549H310.31C306.444 279.549 303.31 276.415 303.31 272.549V203.028C303.31 199.162 306.444 196.028 310.31 196.028ZM294.648 238.282H251.831C247.965 238.282 244.831 241.416 244.831 245.282V314.803C244.831 318.669 247.965 321.803 251.831 321.803H294.648C298.514 321.803 301.648 318.669 301.648 314.803V245.282C301.648 241.416 298.514 238.282 294.648 238.282ZM310.31 281.211H353.127C356.993 281.211 360.127 284.345 360.127 288.211V357.732C360.127 361.598 356.993 364.732 353.127 364.732H310.31C306.444 364.732 303.31 361.598 303.31 357.732V288.211C303.31 284.345 306.444 281.211 310.31 281.211ZM528.563 -358H485.746C481.88 -358 478.746 -354.866 478.746 -351V-281.479C478.746 -277.613 481.88 -274.479 485.746 -274.479H528.563C532.429 -274.479 535.563 -277.613 535.563 -281.479V-351C535.563 -354.866 532.429 -358 528.563 -358ZM595.042 -279.17V-268.125C595.879 -270.905 598.186 -273.048 601.061 -273.648C598.186 -274.248 595.879 -276.391 595.042 -279.17ZM594.704 -236.241C593.868 -233.461 591.56 -231.319 588.686 -230.718C591.56 -230.118 593.868 -227.975 594.704 -225.196V-236.241ZM542.582 -230.718C539.708 -230.118 537.4 -227.975 536.563 -225.195V-236.241C537.4 -233.461 539.708 -231.319 542.582 -230.718ZM536.225 -268.125V-279.171C535.389 -276.391 533.081 -274.248 530.207 -273.648C533.081 -273.048 535.389 -270.905 536.225 -268.125ZM587.042 -315.07H544.225C540.359 -315.07 537.225 -311.936 537.225 -308.07V-238.549C537.225 -234.683 540.359 -231.549 544.225 -231.549H587.042C590.908 -231.549 594.042 -234.683 594.042 -238.549V-308.07C594.042 -311.936 590.908 -315.07 587.042 -315.07ZM485.746 -272.817H528.563C532.429 -272.817 535.563 -269.683 535.563 -265.817V-196.296C535.563 -192.43 532.429 -189.296 528.563 -189.296H485.746C481.88 -189.296 478.746 -192.43 478.746 -196.296V-265.817C478.746 -269.683 481.88 -272.817 485.746 -272.817ZM587.042 -229.887H544.225C540.359 -229.887 537.225 -226.753 537.225 -222.887V-153.366C537.225 -149.5 540.359 -146.366 544.225 -146.366H587.042C590.908 -146.366 594.042 -149.5 594.042 -153.366V-222.887C594.042 -226.753 590.908 -229.887 587.042 -229.887ZM645.521 -358H602.704C598.838 -358 595.704 -354.866 595.704 -351V-281.479C595.704 -277.613 598.838 -274.479 602.704 -274.479H645.521C649.387 -274.479 652.521 -277.613 652.521 -281.479V-351C652.521 -354.866 649.387 -358 645.521 -358ZM659.54 -230.718C656.665 -230.118 654.357 -227.975 653.521 -225.195V-236.241C654.357 -233.461 656.665 -231.319 659.54 -230.718ZM653.183 -268.125V-279.171C652.347 -276.391 650.039 -274.248 647.165 -273.648C650.039 -273.048 652.347 -270.905 653.183 -268.125ZM704 -315.07H661.183C657.317 -315.07 654.183 -311.936 654.183 -308.07V-238.549C654.183 -234.683 657.317 -231.549 661.183 -231.549H704C707.866 -231.549 711 -234.683 711 -238.549V-308.07C711 -311.936 707.866 -315.07 704 -315.07ZM602.704 -272.817H645.521C649.387 -272.817 652.521 -269.683 652.521 -265.817V-196.296C652.521 -192.43 649.387 -189.296 645.521 -189.296H602.704C598.838 -189.296 595.704 -192.43 595.704 -196.296V-265.817C595.704 -269.683 598.838 -272.817 602.704 -272.817ZM704 -229.887H661.183C657.317 -229.887 654.183 -226.753 654.183 -222.887V-153.366C654.183 -149.5 657.317 -146.366 661.183 -146.366H704C707.866 -146.366 711 -149.5 711 -153.366V-222.887C711 -226.753 707.866 -229.887 704 -229.887ZM485.746 -17.2676H528.563C532.429 -17.2676 535.563 -14.1336 535.563 -10.2676V59.2535C535.563 63.1194 532.429 66.2535 528.563 66.2535H485.746C481.88 66.2535 478.746 63.1195 478.746 59.2535V-10.2676C478.746 -14.1336 481.88 -17.2676 485.746 -17.2676ZM595.042 72.6072V61.5619C595.879 64.3417 598.186 66.4843 601.061 67.0845C598.186 67.6847 595.879 69.8273 595.042 72.6072ZM588.686 110.014C591.56 109.414 593.868 107.271 594.704 104.491V115.537C593.868 112.757 591.56 110.614 588.686 110.014ZM536.563 115.537C537.4 112.757 539.708 110.614 542.582 110.014C539.708 109.414 537.4 107.271 536.563 104.491V115.537ZM536.225 61.5613V72.6073C535.389 69.8274 533.081 67.6847 530.207 67.0845C533.081 66.4842 535.389 64.3414 536.225 61.5613ZM544.225 25.662H587.042C590.908 25.662 594.042 28.796 594.042 32.662V102.183C594.042 106.049 590.908 109.183 587.042 109.183H544.225C540.359 109.183 537.225 106.049 537.225 102.183V32.662C537.225 28.796 540.359 25.662 544.225 25.662ZM528.563 67.9155H485.746C481.88 67.9155 478.746 71.0495 478.746 74.9155V144.437C478.746 148.303 481.88 151.437 485.746 151.437H528.563C532.429 151.437 535.563 148.303 535.563 144.437V74.9155C535.563 71.0495 532.429 67.9155 528.563 67.9155ZM544.225 110.845H587.042C590.908 110.845 594.042 113.979 594.042 117.845V187.366C594.042 191.232 590.908 194.366 587.042 194.366H544.225C540.359 194.366 537.225 191.232 537.225 187.366V117.845C537.225 113.979 540.359 110.845 544.225 110.845ZM602.704 -17.2676H645.521C649.387 -17.2676 652.521 -14.1336 652.521 -10.2676V59.2535C652.521 63.1195 649.387 66.2535 645.521 66.2535H602.704C598.838 66.2535 595.704 63.1195 595.704 59.2535V-10.2676C595.704 -14.1336 598.838 -17.2676 602.704 -17.2676ZM653.521 115.537C654.357 112.757 656.665 110.614 659.54 110.014C656.665 109.414 654.357 107.271 653.521 104.491V115.537ZM653.183 61.5615V72.6073C652.347 69.8274 650.039 67.6847 647.165 67.0845C650.039 66.4843 652.347 64.3415 653.183 61.5615ZM661.183 25.662H704C707.866 25.662 711 28.796 711 32.662V102.183C711 106.049 707.866 109.183 704 109.183H661.183C657.317 109.183 654.183 106.049 654.183 102.183V32.662C654.183 28.796 657.317 25.662 661.183 25.662ZM645.521 67.9155H602.704C598.838 67.9155 595.704 71.0495 595.704 74.9155V144.437C595.704 148.303 598.838 151.437 602.704 151.437H645.521C649.387 151.437 652.521 148.303 652.521 144.437V74.9155C652.521 71.0495 649.387 67.9155 645.521 67.9155ZM661.183 110.845H704C707.866 110.845 711 113.979 711 117.845V187.366C711 191.232 707.866 194.366 704 194.366H661.183C657.317 194.366 654.183 191.232 654.183 187.366V117.845C654.183 113.979 657.317 110.845 661.183 110.845ZM528.563 -187.634H485.746C481.88 -187.634 478.746 -184.5 478.746 -180.634V-111.113C478.746 -107.247 481.88 -104.113 485.746 -104.113H528.563C532.429 -104.113 535.563 -107.247 535.563 -111.113V-180.634C535.563 -184.5 532.429 -187.634 528.563 -187.634ZM595.042 -108.804V-97.759C595.879 -100.539 598.186 -102.681 601.061 -103.282C598.186 -103.882 595.879 -106.024 595.042 -108.804ZM594.704 -65.8749C593.868 -63.095 591.56 -60.9523 588.686 -60.3521C591.56 -59.7519 593.868 -57.6093 594.704 -54.8294V-65.8749ZM542.582 -60.3521C539.708 -59.7519 537.4 -57.6092 536.563 -54.8293V-65.875C537.4 -63.0951 539.708 -60.9523 542.582 -60.3521ZM536.225 -97.7589V-108.805C535.389 -106.025 533.081 -103.882 530.207 -103.282C533.081 -102.682 535.389 -100.539 536.225 -97.7589ZM587.042 -144.704H544.225C540.359 -144.704 537.225 -141.57 537.225 -137.704V-68.1831C537.225 -64.3171 540.359 -61.1831 544.225 -61.1831H587.042C590.908 -61.1831 594.042 -64.3171 594.042 -68.1831V-137.704C594.042 -141.57 590.908 -144.704 587.042 -144.704ZM485.746 -102.451H528.563C532.429 -102.451 535.563 -99.3167 535.563 -95.4507V-25.9296C535.563 -22.0636 532.429 -18.9296 528.563 -18.9296H485.746C481.88 -18.9296 478.746 -22.0636 478.746 -25.9296V-95.4507C478.746 -99.3167 481.88 -102.451 485.746 -102.451ZM587.042 -59.5211H544.225C540.359 -59.5211 537.225 -56.3871 537.225 -52.5211V17C537.225 20.866 540.359 24 544.225 24H587.042C590.908 24 594.042 20.866 594.042 16.9999V-52.5211C594.042 -56.3871 590.908 -59.5211 587.042 -59.5211ZM645.521 -187.634H602.704C598.838 -187.634 595.704 -184.5 595.704 -180.634V-111.113C595.704 -107.247 598.838 -104.113 602.704 -104.113H645.521C649.387 -104.113 652.521 -107.247 652.521 -111.113V-180.634C652.521 -184.5 649.387 -187.634 645.521 -187.634ZM659.54 -60.3521C656.665 -59.7519 654.357 -57.6092 653.521 -54.8293V-65.875C654.357 -63.095 656.665 -60.9523 659.54 -60.3521ZM653.183 -97.7589V-108.805C652.347 -106.025 650.039 -103.882 647.165 -103.282C650.039 -102.682 652.347 -100.539 653.183 -97.7589ZM704 -144.704H661.183C657.317 -144.704 654.183 -141.57 654.183 -137.704V-68.1831C654.183 -64.3171 657.317 -61.1831 661.183 -61.1831H704C707.866 -61.1831 711 -64.3171 711 -68.1831V-137.704C711 -141.57 707.866 -144.704 704 -144.704ZM602.704 -102.451H645.521C649.387 -102.451 652.521 -99.3167 652.521 -95.4507V-25.9296C652.521 -22.0636 649.387 -18.9296 645.521 -18.9296H602.704C598.838 -18.9296 595.704 -22.0636 595.704 -25.9296V-95.4507C595.704 -99.3167 598.838 -102.451 602.704 -102.451ZM704 -59.5211H661.183C657.317 -59.5211 654.183 -56.3871 654.183 -52.5211V17C654.183 20.866 657.317 24 661.183 24H704C707.866 24 711 20.866 711 16.9999V-52.5211C711 -56.3871 707.866 -59.5211 704 -59.5211ZM602.704 153.099H645.521C649.387 153.099 652.521 156.233 652.521 160.099V229.62C652.521 233.486 649.387 236.62 645.521 236.62H602.704C598.838 236.62 595.704 233.486 595.704 229.62V160.099C595.704 156.233 598.838 153.099 602.704 153.099ZM588.686 280.38C591.56 279.78 593.868 277.637 594.704 274.858V285.903C593.868 283.123 591.56 280.98 588.686 280.38ZM601.061 237.451C598.186 238.051 595.879 240.194 595.042 242.973V231.928C595.879 234.708 598.186 236.851 601.061 237.451ZM653.521 285.903C654.357 283.123 656.665 280.98 659.54 280.38C656.665 279.78 654.357 277.637 653.521 274.857V285.903ZM653.183 231.928V242.974C652.347 240.194 650.039 238.051 647.165 237.451C650.039 236.85 652.347 234.708 653.183 231.928ZM661.183 196.028H704C707.866 196.028 711 199.162 711 203.028V272.549C711 276.415 707.866 279.549 704 279.549H661.183C657.317 279.549 654.183 276.415 654.183 272.549V203.028C654.183 199.162 657.317 196.028 661.183 196.028ZM645.521 238.282H602.704C598.838 238.282 595.704 241.416 595.704 245.282V314.803C595.704 318.669 598.838 321.803 602.704 321.803H645.521C649.387 321.803 652.521 318.669 652.521 314.803V245.282C652.521 241.416 649.387 238.282 645.521 238.282ZM661.183 281.211H704C707.866 281.211 711 284.345 711 288.211V357.732C711 361.598 707.866 364.732 704 364.732H661.183C657.317 364.732 654.183 361.598 654.183 357.732V288.211C654.183 284.345 657.317 281.211 661.183 281.211ZM485.746 153.099H528.563C532.429 153.099 535.563 156.233 535.563 160.099V229.62C535.563 233.486 532.429 236.62 528.563 236.62H485.746C481.88 236.62 478.746 233.486 478.746 229.62V160.099C478.746 156.233 481.88 153.099 485.746 153.099ZM536.563 285.903C537.4 283.123 539.708 280.98 542.582 280.38C539.708 279.78 537.4 277.637 536.563 274.857V285.903ZM536.225 231.927V242.974C535.389 240.194 533.081 238.051 530.207 237.451C533.081 236.85 535.389 234.708 536.225 231.927ZM544.225 196.028H587.042C590.908 196.028 594.042 199.162 594.042 203.028V272.549C594.042 276.415 590.908 279.549 587.042 279.549H544.225C540.359 279.549 537.225 276.415 537.225 272.549V203.028C537.225 199.162 540.359 196.028 544.225 196.028ZM528.563 238.282H485.746C481.88 238.282 478.746 241.416 478.746 245.282V314.803C478.746 318.669 481.88 321.803 485.746 321.803H528.563C532.429 321.803 535.563 318.669 535.563 314.803V245.282C535.563 241.416 532.429 238.282 528.563 238.282ZM544.225 281.211H587.042C590.908 281.211 594.042 284.345 594.042 288.211V357.732C594.042 361.598 590.908 364.732 587.042 364.732H544.225C540.359 364.732 537.225 361.598 537.225 357.732V288.211C537.225 284.345 540.359 281.211 544.225 281.211Z" fill="url(#paint0_linear_486_19448)"/>
<defs>
<linearGradient id="paint0_linear_486_19448" x1="-224" y1="-359" x2="417.577" y2="140.099" gradientUnits="userSpaceOnUse">
<stop stop-color="#DD6E42"/>
<stop offset="1" stop-color="#DD6E42" stop-opacity="0"/>
</linearGradient>
</defs>
</svg>
